# Blender v2.74 (sub 0) OBJ File: 'char.blend'
# www.blender.org
mtllib char_run1.mtl
o Cube
v 1.243343 -0.394339 -1.076012
v 1.198965 -1.345128 0.087626
v -1.241362 -0.528996 0.737081
v -1.245035 -1.323737 -0.608145
v 1.216257 1.540036 0.188765
v 1.225449 1.166126 2.112669
v -1.278781 0.911476 1.168456
v -1.220090 2.532933 0.200111
v 0.005733 -1.217581 0.251986
v -0.001537 -0.543342 -1.073600
v -1.641911 -2.773024 2.217813
v -1.700373 -2.209103 0.860107
v -0.667077 -2.347150 2.264861
v -0.698330 -2.659157 0.974463
v 1.582622 -2.222878 -2.014778
v 1.536564 -3.227731 -0.809700
v 0.538288 -3.169895 -0.799629
v 0.587152 -2.170819 -1.998701
v -1.501630 -4.964209 0.360896
v -1.561522 -4.267159 -0.866469
v -0.629421 -4.812071 0.511343
v -0.688064 -4.177052 -0.706053
v 1.708024 -4.023298 -4.068608
v 1.666571 -4.927667 -2.984038
v 0.768123 -4.875614 -2.974973
v 0.809576 -3.971246 -4.059543
v 0.574294 2.655430 0.673973
v 0.578520 2.158921 1.838310
v -0.630631 2.074546 1.848418
v -0.626999 2.727326 0.812247
v 2.128432 1.893856 0.516575
v 2.133546 1.710480 1.703295
v 1.921673 2.608091 0.809940
v 1.926327 2.424068 1.675192
v -2.188502 1.546898 1.310168
v -2.149008 2.612235 0.793197
v -1.990126 2.015245 1.871941
v -1.964253 2.788263 1.446413
v -1.914907 0.600613 -0.232173
v -1.861039 1.020769 -1.397450
v -2.804689 0.949743 -0.260784
v -2.760746 1.613358 -1.089901
v 1.837383 -0.834867 0.666061
v 1.870591 0.021922 1.534433
v 2.772198 -0.264723 0.323498
v 2.792819 0.098902 1.269607
v -2.066511 -1.128167 -0.691851
v -2.035595 -0.934645 -1.394794
v -2.953872 -0.637670 -0.663657
v -2.897903 -0.250726 -1.826979
v 1.841206 -1.674301 2.436054
v 1.862124 -1.122225 2.912826
v 2.757611 -1.810546 1.747570
v 2.789791 -0.934746 2.542053
v 0.544906 2.984612 0.955963
v 0.547541 2.605642 1.779612
v -0.601968 2.586163 1.791914
v -0.603598 2.986855 1.024693
v 0.694351 3.431868 1.052320
v 0.440321 2.624579 2.729037
v -0.492618 2.619524 2.729956
v -0.758634 3.424802 1.056031
v 0.917608 2.985389 1.985144
v -0.975254 2.975132 1.987010
v 0.576926 4.354093 0.933280
v 0.581549 3.897767 3.114030
v -0.646877 3.891110 3.115241
v -0.651501 4.347436 0.934491
v 0.667617 4.580389 2.157124
v -0.742226 4.572750 2.158515
v 1.098723 3.744559 2.153822
v -1.164253 3.732297 2.156054
v -2.253637 0.744853 -6.026791
v -2.427808 -0.673791 -0.882421
v -2.217143 1.251262 -5.885905
v -2.391314 -0.167383 -0.741535
v -2.192907 1.448661 -6.601727
v 1.938825 -1.334827 2.591964
v 1.956896 -1.041350 2.251342
v 1.927662 -1.703809 2.032357
v 1.948222 -1.324140 1.832640
v 2.425970 -1.358208 2.597663
v 2.444041 -1.064731 2.257041
v 2.414807 -1.727190 2.038056
v 2.435367 -1.347521 1.838340
v 1.963589 -0.719777 2.998488
v 1.983176 -0.401672 2.629282
v 2.450734 -0.743158 3.004187
v 2.470321 -0.425053 2.634981
v 1.889540 -2.135234 3.520952
v 2.376685 -2.158615 3.526651
v 1.904510 -1.679235 4.112078
v 2.391655 -1.702616 4.117777
vn -0.086600 -0.574500 0.813900
vn 0.999900 -0.006300 0.008700
vn -0.099100 -0.523300 0.846400
vn -0.999700 0.003000 -0.022700
vn -0.094600 0.386800 -0.917300
vn 0.011000 -0.762400 -0.647100
vn 0.033400 -0.446800 0.894000
vn -0.997200 -0.073700 0.009700
vn -0.964700 0.263500 -0.000300
vn 0.879900 -0.468800 -0.077900
vn 0.219200 0.667300 0.711800
vn -0.996500 -0.040300 -0.073000
vn 0.984600 0.114300 0.132000
vn -0.963800 -0.214600 -0.158100
vn -0.027600 0.468800 -0.882900
vn 0.203500 -0.855600 -0.476000
vn 0.105700 -0.606800 0.787800
vn 0.232200 0.676000 -0.699400
vn 0.998800 0.038600 -0.030800
vn -0.050800 -0.766100 -0.640700
vn 0.032700 0.753500 -0.656600
vn -0.039500 -0.788300 0.614000
vn 0.998700 0.013300 0.049300
vn 0.997200 0.069700 0.027300
vn -0.224500 -0.180100 0.957700
vn 0.155700 0.637800 -0.754300
vn -0.073200 0.945500 0.317300
vn 0.961700 0.270700 0.043900
vn 0.123700 0.436600 -0.891100
vn 0.154200 0.246800 0.956700
vn 0.386500 -0.151200 0.909800
vn -0.963000 0.149300 0.224500
vn -0.070200 0.968200 -0.240300
vn -0.414800 -0.806500 0.421300
vn 0.168700 0.703900 0.690000
vn -0.996400 0.084500 -0.005400
vn 0.932000 -0.285100 -0.223600
vn 0.008300 0.809500 -0.587000
vn -0.946100 0.226200 0.231800
vn 0.107200 0.768000 0.631400
vn 0.020500 -0.056900 -0.998200
vn 0.942400 0.332300 -0.039500
vn -0.937800 -0.339500 0.073000
vn -0.489700 -0.825800 -0.279700
vn 0.995800 -0.090100 0.015600
vn 0.191700 0.170200 -0.966600
vn -0.113800 -0.240400 0.964000
vn 0.405000 -0.616300 0.675300
vn -0.144200 -0.792600 -0.592400
vn 0.999600 -0.022100 -0.014600
vn -0.999600 0.024900 0.014200
vn -0.997600 0.060400 0.034200
vn 0.004200 0.119400 0.992800
vn -0.047100 0.642100 -0.765100
vn -0.001200 -0.129300 -0.991600
vn 0.012000 -0.999500 0.027700
vn -0.027800 0.142500 -0.989400
vn 0.687800 -0.720100 0.092000
vn -0.891400 -0.290700 -0.347800
vn -0.759000 -0.577800 -0.300200
vn -0.690400 -0.715700 0.105900
vn 0.758700 -0.590900 -0.274300
vn 0.914200 -0.234200 -0.330900
vn 0.940600 -0.157600 -0.300600
vn 0.862700 -0.296800 0.409500
vn 0.002500 -0.289700 0.957100
vn -0.005500 0.983400 -0.181400
vn -0.003800 0.814200 0.580500
vn 0.929600 0.071700 -0.361600
vn 0.878600 0.453700 -0.149000
vn 0.824000 0.423500 0.376300
vn 0.837900 -0.241000 0.489700
vn -0.939300 -0.167600 -0.299500
vn -0.858600 -0.306100 0.411200
vn -0.834300 -0.250100 0.491400
vn -0.827800 0.414600 0.377900
vn -0.883700 0.444200 -0.147300
vn -0.930900 0.060600 -0.360200
vn -0.997100 0.075500 -0.012900
vn -0.998800 0.047900 -0.011700
vn -0.012000 -0.465000 -0.885200
vn 0.998800 -0.047900 0.011700
vn 0.034400 0.507300 -0.861100
vn -0.046400 -0.833500 0.550500
vn 0.046300 0.827400 -0.559800
vn 0.028700 0.756500 0.653300
vn -0.045100 -0.790400 0.610900
vn -0.028700 -0.756500 -0.653300
usemtl Material
s off
f 7//1 29//1 37//1 35//1
f 1//2 5//2 6//2 2//2
f 2//3 6//3 7//3 3//3 9//3
f 3//4 7//4 8//4 4//4
f 5//5 1//5 10//5 4//5 8//5
f 4//6 10//6 14//6 12//6
f 2//7 9//7 17//7 16//7
f 11//8 12//8 20//8 19//8
f 3//9 4//9 12//9 11//9
f 10//10 9//10 13//10 14//10
f 9//11 3//11 11//11 13//11
f 17//12 18//12 26//12 25//12
f 1//13 2//13 16//13 15//13
f 9//14 10//14 18//14 17//14
f 10//15 1//15 15//15 18//15
f 20//16 22//16 21//16 19//16
f 13//17 11//17 19//17 21//17
f 12//18 14//18 22//18 20//18
f 14//19 13//19 21//19 22//19
f 23//20 24//20 25//20 26//20
f 18//21 15//21 23//21 26//21
f 16//22 17//22 25//22 24//22
f 15//23 16//23 24//23 23//23
f 28//24 27//24 55//24 56//24
f 7//25 6//25 28//25 29//25
f 5//26 8//26 30//26 27//26
f 27//27 28//27 34//27 33//27
f 32//28 31//28 33//28 34//28
f 5//29 27//29 33//29 31//29
f 28//30 6//30 32//30 34//30
f 32//31 6//31 44//31 46//31
f 36//32 35//32 37//32 38//32
f 30//33 8//33 36//33 38//33
f 7//34 35//34 41//34 39//34
f 29//35 30//35 38//35 37//35
f 41//36 42//36 50//36 49//36
f 8//37 7//37 39//37 40//37
f 36//38 8//38 40//38 42//38
f 35//39 36//39 42//39 41//39
f 46//40 44//40 52//40 54//40
f 5//41 31//41 45//41 43//41
f 31//42 32//42 46//42 45//42
f 6//43 5//43 43//43 44//43
f 48//44 47//44 49//44 50//44
f 40//45 39//45 47//45 48//45
f 42//46 40//46 48//46 50//46
f 39//47 41//47 49//47 47//47
f 52//48 51//48 53//48 54//48
f 43//49 45//49 53//49 51//49
f 45//50 46//50 54//50 53//50
f 44//51 43//51 51//51 52//51
f 30//52 29//52 57//52 58//52
f 29//53 28//53 56//53 57//53
f 27//54 30//54 58//54 55//54
f 59//55 62//55 68//55 65//55
f 57//56 56//56 60//56 61//56
f 55//57 58//57 62//57 59//57
f 63//58 60//58 56//58
f 64//59 62//59 58//59
f 58//60 57//60 64//60
f 61//61 64//61 57//61
f 56//62 55//62 63//62
f 55//63 59//63 63//63
f 63//64 59//64 71//64
f 60//65 63//65 71//65
f 61//66 60//66 66//66 67//66
f 68//67 70//67 69//67 65//67
f 69//68 70//68 67//68 66//68
f 59//69 65//69 71//69
f 71//70 65//70 69//70
f 71//71 69//71 66//71
f 71//72 66//72 60//72
f 62//73 64//73 72//73
f 64//74 61//74 72//74
f 72//75 61//75 67//75
f 72//76 67//76 70//76
f 72//77 70//77 68//77
f 68//78 62//78 72//78
f 74//79 76//79 75//79 73//79
f 75//79 77//79 73//79
f 79//80 81//80 80//80 78//80
f 81//81 85//81 84//81 80//81
f 85//82 83//82 82//82 84//82
f 83//83 79//83 87//83 89//83
f 78//84 80//84 84//84 82//84
f 83//85 85//85 81//85 79//85
f 89//86 87//86 86//86 88//86
f 79//80 78//80 86//80 87//80
f 82//82 83//82 89//82 88//82
f 88//86 86//86 92//86 93//86
f 90//87 91//87 93//87 92//87
f 82//82 88//82 93//82 91//82
f 86//80 78//80 90//80 92//80
f 78//88 82//88 91//88 90//88
